<?xml version="1.0" encoding="UTF-8"?>
<!-- Generator: Adobe Illustrator 28.0.0, SVG Export Plug-In . SVG Version: 6.00 Build 0)  -->
<svg xmlns="http://www.w3.org/2000/svg" xmlns:xlink="http://www.w3.org/1999/xlink" version="1.1" id="Logos" x="0px" y="0px" viewBox="0 0 879.6 253.1" style="enable-background:new 0 0 879.6 253.1;" xml:space="preserve">
<style type="text/css">
	.st0{fill:#FFFFFF;}
	.st1{fill:none;stroke:#FFFFFF;stroke-width:10.49;stroke-linecap:round;stroke-linejoin:round;}
</style>
<g>
	<path class="st0" d="M279,49h18v46.1L335.7,49h20.7l-39.7,47.3l41.6,49.5h-21.4l-40-48.3v48.3h-18C279,145.8,279,49,279,49z"></path>
	<path class="st0" d="M378.9,117.2c1.1,10.4,7.7,17.4,20,17.4c8.4,0,14.9-3.7,18.2-9h16.2c-4.7,12.3-18,21.8-34.4,21.8   c-23.5,0-37.2-15.6-37.2-36.2s15.1-36.1,36.4-36.1s36.2,15.1,36.2,36.4v5.7L378.9,117.2L378.9,117.2z M378.8,105.7h39   c-1.1-10.6-8.2-18.1-19.4-18.1S380.2,94.5,378.8,105.7L378.8,105.7z"></path>
	<path class="st0" d="M466.7,145.8h-17.4v-69h16.9v11.8c3.2-8,11.6-13.4,22.4-13.4s18.1,5.1,22,13.4c5.3-8.6,13.8-13.4,25-13.4   c16.6,0,25.2,12.2,25.2,29.3v41.3h-17.4v-38.4c0-9.8-3.7-17-14.1-17c-9.4,0-15.5,6.6-15.5,16.2v39.3h-17.4v-38.4   c0-9.8-3.7-17-14.1-17c-9.5,0-15.5,6.9-15.5,16.9L466.7,145.8L466.7,145.8z"></path>
	<path class="st0" d="M596.6,174.7h-17.4V76.8h16.7v11.9c4-7.1,13.1-13.6,25.2-13.6c20.5,0,34.8,16.3,34.8,36.2   s-14.4,36.1-34.8,36.1c-12,0-21-6.1-24.5-13.6L596.6,174.7L596.6,174.7z M617.6,89.5c-11.3,0-21,8.6-21,21.9s9.7,21.7,21,21.7   c12.4,0,20.9-9.7,20.9-21.7S630,89.5,617.6,89.5z"></path>
	<path class="st0" d="M688.1,145.8h-17.4v-69h16.9v11.8c3.2-8,12.2-13.4,23-13.4c16.6,0,25.9,12.2,25.9,29.3v41.3h-17.4v-38.4   c0-9.8-4.4-17-14.8-17c-9.5,0-16,6.9-16,16.9L688.1,145.8L688.1,145.8z"></path>
	<path class="st0" d="M767.6,117.2c1.1,10.4,7.7,17.4,20,17.4c8.4,0,14.9-3.7,18.2-9h16.2c-4.7,12.3-18,21.8-34.4,21.8   c-23.5,0-37.2-15.6-37.2-36.2s15.1-36.1,36.4-36.1s36.2,15.1,36.2,36.4v5.7L767.6,117.2L767.6,117.2z M767.5,105.7h39   c-1.1-10.6-8.2-18.1-19.4-18.1S768.8,94.5,767.5,105.7z"></path>
	<path class="st0" d="M879.6,93.5h-3.7c-14,0-20.5,8.2-20.5,21.6v30.7H838v-69h16.9v14.9c3.3-10.9,12.6-15.5,24.8-15.5L879.6,93.5   L879.6,93.5z"></path>
	<path class="st0" d="M278.9,168.7h4v34.7h-4V168.7z"></path>
	<path class="st0" d="M297,168.7h3.1l22.7,28.5v-28.5h3.7v34.7h-3.1l-22.7-28.5v28.5H297L297,168.7L297,168.7z"></path>
	<path class="st0" d="M342.1,193.8c0.7,4.2,3.6,7,8.4,7s7.9-2.9,7.9-6.6s-2.4-5.5-6-6.6l-4.3-1.2c-5.1-1.5-8.7-4.2-8.7-9.2   c0-5.6,4.7-9.2,10.8-9.2s10.3,4.1,10.7,9.4h-3.6c-0.5-3.6-3-6.2-7.1-6.2s-6.9,2.2-6.9,5.9s2.6,4.9,6.2,6l4.1,1.2   c5.4,1.5,8.7,4.3,8.7,9.7c0,6-5,10.1-11.8,10.1s-11.3-4.2-12.1-10.3L342.1,193.8L342.1,193.8z"></path>
	<path class="st0" d="M396.7,172.1h-11.4v31.3h-4v-31.3h-11.4v-3.4h26.7L396.7,172.1L396.7,172.1z"></path>
	<path class="st0" d="M408.1,168.7h4v34.7h-4L408.1,168.7L408.1,168.7z"></path>
	<path class="st0" d="M450,172.1h-11.4v31.3h-4v-31.3h-11.4v-3.4H450L450,172.1L450,172.1z"></path>
	<path class="st0" d="M489.9,190.3c0,8-6,13.8-14.4,13.8s-14.4-5.8-14.4-13.8v-21.6h4v21.8c0,6.1,4.3,10.2,10.5,10.2   s10.5-4.1,10.5-10.2v-21.8h4L489.9,190.3L489.9,190.3z"></path>
	<path class="st0" d="M527.6,172.1h-11.4v31.3h-4v-31.3h-11.4v-3.4h26.7L527.6,172.1L527.6,172.1z"></path>
	<path class="st0" d="M538.7,168.7h21.9v3.5h-18V184h17.5v3.5h-17.5v12.5h18.2v3.5h-22.1V168.7L538.7,168.7z"></path>
	<path class="st1" d="M56.6,185.9c-5.2,8.9-10.4,17.7-15.5,26.5c-11.9-7-23.9-14-35.8-20.9c0-41.5,0-87-0.1-128.5   c37-20.6,73.9-37.2,110.8-57.8c11.4,6.7,22.9,13.4,34.3,20.1 M79,93.4c-13.9,23.8-27.9,47.6-41.8,71.4c0-26.8,0-53.7,0-80.5   c23.3-13,46.6-26,69.9-38.9c7.9,4.6,15.8,9.2,23.7,13.9c-16.8,28.7-33.6,57.3-50.3,86 M161.2,67.2c5.2-8.8,10.4-17.7,15.5-26.5   c11.8,6.9,23.6,13.8,35.4,20.8c0,41.8,0,83.6,0,125.5c-36.8,20.3-73.7,40.6-110.5,60.9c-11.4-6.7-22.8-13.4-34.2-20.1 M138.8,159.7   c13.9-23.8,27.8-47.5,41.8-71.3c0,26.7,0,53.5,0,80.2c-23.3,13-46.6,26.1-69.9,39.1c-7.9-4.6-15.8-9.2-23.7-13.9   c16.8-28.7,33.6-57.3,50.3-86"></path>
</g>
</svg>
